<?xml version="1.0" encoding="UTF-8"?>
<svg width="293px" height="32px" viewBox="0 0 293 32" version="1.1" xmlns="http://www.w3.org/2000/svg" xmlns:xlink="http://www.w3.org/1999/xlink">
    <!-- Generator: Sketch 59 (86127) - https://sketch.com -->
    <title>Logo</title>
    <desc>Created with Sketch.</desc>
    <defs>
        <polygon id="path-1" points="1.73372428e-12 31.4475 292.52625 31.4475 292.52625 -3.49231755e-12 1.73372428e-12 -3.49231755e-12"></polygon>
    </defs>
    <g id="Page-Designs" stroke="none" stroke-width="1" fill="none" fill-rule="evenodd">
        <g id="Visual-Concept-Copy" transform="translate(-62.000000, -15.000000)" stroke="#979797">
            <g id="Logo" transform="translate(62.000000, 15.000000)">
                <g id="Group-62" stroke="none">
                    <path d="M133.99035,3.4488 C133.66485,3.12255 133.1691,2.73555 132.6426,2.4873 C132.0996,2.2398 131.4636,2.08455 130.8591,2.08455 C128.4726,2.08455 126.70635,4.00605 126.70635,6.3933 C126.70635,9.19905 128.9841,10.60905 130.87485,10.60905 C131.57235,10.60905 132.25485,10.4073 132.79785,10.1283 C133.38585,9.8343 133.8051,9.44655 133.99035,9.2613 L133.99035,10.6863 C132.8436,11.50755 131.65035,11.6943 130.87485,11.6943 C127.8066,11.6943 125.52735,9.37005 125.52735,6.3783 C125.52735,3.29355 127.83735,0.9993 130.9371,0.9993 C131.55735,0.9993 132.75135,1.07655 133.99035,2.0223 L133.99035,3.4488 Z" id="Fill-1" fill="#1B459C"></path>
                    <polygon id="Fill-3" fill="#1B459C" points="141.620025 2.25495 137.403525 2.25495 137.403525 5.32395 141.495525 5.32395 141.495525 6.4092 137.403525 6.4092 137.403525 10.42245 141.620025 10.42245 141.620025 11.5077 136.257525 11.5077 136.257525 1.1697 141.620025 1.1697"></polygon>
                    <polygon id="Fill-5" fill="#1B459C" points="143.8707 11.507625 143.8707 0.736125 151.9302 9.183375 151.9302 1.169625 153.07695 1.169625 153.07695 11.972625 145.0167 3.525375 145.0167 11.507625"></polygon>
                    <polygon id="Fill-7" fill="#1B459C" points="158.4441 2.25495 158.4441 11.5077 157.29735 11.5077 157.29735 2.25495 154.78635 2.25495 154.78635 1.1697 160.9551 1.1697 160.9551 2.25495"></polygon>
                    <polygon id="Fill-9" fill="#1B459C" points="168.010275 2.25495 163.793775 2.25495 163.793775 5.32395 167.885775 5.32395 167.885775 6.4092 163.793775 6.4092 163.793775 10.42245 168.010275 10.42245 168.010275 11.5077 162.647775 11.5077 162.647775 1.1697 168.010275 1.1697"></polygon>
                    <path d="M171.40725,5.958825 L172.1355,5.958825 C173.56125,5.958825 174.414,5.277075 174.414,4.068075 C174.414,3.494325 174.24375,2.922075 173.59275,2.549325 C173.127,2.286075 172.6005,2.255325 172.104,2.255325 L171.40725,2.255325 L171.40725,5.958825 Z M171.91875,1.170075 C172.6155,1.170075 173.65425,1.216575 174.42975,1.743075 C175.0335,2.146575 175.56075,2.937075 175.56075,4.036575 C175.56075,5.618325 174.522,6.780825 172.9575,6.889575 L176.24325,11.507325 L174.84825,11.507325 L171.70125,6.981825 L171.40725,6.981825 L171.40725,11.507325 L170.2605,11.507325 L170.2605,1.170075 L171.91875,1.170075 Z" id="Fill-11" fill="#1B459C"></path>
                    <path d="M182.37705,6.0522 C182.29905,6.0522 182.2683,6.0057 182.29905,5.8977 L182.3613,5.6337 C182.3928,5.52495 182.42355,5.47845 182.54805,5.47845 L183.8958,5.47845 C184.36155,4.1457 184.88805,2.85945 185.7093,1.9452 C186.1443,1.44945 186.9963,0.89145 188.00355,0.89145 C188.9028,0.89145 189.39855,1.4337 189.39855,1.8057 C189.39855,2.28645 189.0888,2.5182 188.7783,2.5182 C188.28255,2.5182 188.14305,2.23995 188.09655,1.8987 C188.08155,1.74345 187.9263,1.44945 187.4613,1.44945 C186.0198,1.44945 185.4618,3.74295 184.9503,5.47845 L186.45405,5.47845 C186.54705,5.47845 186.5778,5.52495 186.54705,5.66445 L186.4698,5.94345 C186.45405,6.03645 186.42255,6.0522 186.2988,6.0522 L184.8258,6.0522 C184.42305,7.3077 183.7098,9.98895 182.93505,11.9727 C181.99005,14.3907 180.88905,16.1112 179.2308,16.1112 C178.6113,16.1112 178.1148,15.6927 178.1148,15.19695 C178.1148,14.8407 178.37805,14.5302 178.78155,14.5302 C179.2308,14.5302 179.4633,14.96445 179.5098,15.2277 C179.5413,15.3822 179.65005,15.49095 179.77305,15.49095 C180.5178,15.49095 181.35405,14.1897 182.1918,11.32245 L183.7563,6.0522 L182.37705,6.0522 Z" id="Fill-13" fill="#1B459C"></path>
                    <path d="M191.18265,6.6411 C191.1984,6.16035 190.9194,5.77335 190.4079,5.77335 C189.7569,5.77335 188.93565,6.36285 188.1609,7.6176 C187.6344,8.45385 187.2609,9.40035 187.2609,10.1286 C187.2609,10.6251 187.6029,10.9191 187.9749,10.9191 C189.58665,10.9191 191.18265,7.6641 191.18265,6.6411 M186.61065,9.6636 C186.61065,7.7106 188.08365,5.0601 190.14465,5.0601 C191.18265,5.0601 191.8029,5.81985 191.8029,6.87435 C191.8029,8.57835 190.4544,11.6631 188.20665,11.6631 C187.35465,11.6631 186.61065,10.84185 186.61065,9.6636" id="Fill-15" fill="#1B459C"></path>
                    <path d="M192.998325,11.507625 C192.889575,11.507625 192.828075,11.445375 192.858825,11.368875 L193.727325,8.857875 C194.005575,7.989375 194.486325,6.362625 194.486325,6.145125 C194.486325,6.005625 194.361825,5.913375 194.223075,5.913375 C193.912575,5.913375 193.215825,6.610125 192.998325,6.874125 C192.966825,6.920625 192.905325,6.904875 192.873825,6.874125 L192.719325,6.718875 C192.688575,6.688125 192.688575,6.640875 192.719325,6.594375 C193.044825,6.114375 193.974825,5.059875 195.029325,5.059875 C195.338325,5.059875 195.462825,5.323875 195.462825,5.602125 C195.478575,5.897625 195.215325,6.765375 194.904825,7.804125 L194.982825,7.834875 C195.400575,6.966375 196.641075,5.059875 197.508825,5.059875 C197.958075,5.059875 198.237825,5.339625 198.237825,5.757375 C198.237825,6.160875 197.927325,6.470625 197.633325,6.470625 C197.493075,6.470625 197.369325,6.439125 197.245575,6.316125 C197.121825,6.191625 197.043825,6.130125 196.842075,6.130125 C196.423575,6.130125 195.555825,7.462125 194.935575,8.485125 C194.750325,8.780625 194.563575,9.136875 194.331075,9.834375 L193.820325,11.398875 C193.789575,11.507625 193.743075,11.507625 193.618575,11.507625 L192.998325,11.507625 Z" id="Fill-17" fill="#1B459C"></path>
                    <path d="M208.467375,3.215925 C208.328625,2.936925 208.095375,2.626425 207.862875,2.441175 C207.661875,2.285925 207.289875,2.084175 206.701125,2.084175 C205.678125,2.084175 204.964875,2.720175 204.964875,3.680925 C204.964875,4.083675 205.073625,4.316925 205.352625,4.579425 C205.662375,4.889925 206.049375,5.060175 206.437125,5.231175 L207.428625,5.664675 C208.033875,5.928675 208.591875,6.207675 209.025375,6.641175 C209.552625,7.168425 209.770125,7.772925 209.770125,8.516175 C209.770125,10.422675 208.358625,11.693925 206.498625,11.693925 C205.817625,11.693925 204.964875,11.554425 204.252375,10.857675 C203.740875,10.361175 203.430375,9.647925 203.291625,9.028425 L204.406125,8.717925 C204.484125,9.260925 204.733125,9.725925 205.027125,10.035675 C205.476375,10.484925 205.987875,10.608675 206.514375,10.608675 C207.925125,10.608675 208.591875,9.601425 208.591875,8.562675 C208.591875,8.098425 208.451625,7.695675 208.080375,7.354425 C207.786375,7.075425 207.382125,6.889425 206.840625,6.641175 L205.909875,6.207675 C205.507125,6.020925 204.995625,5.804925 204.530625,5.354925 C204.081375,4.921425 203.818125,4.440675 203.818125,3.665175 C203.818125,2.068425 205.042125,0.998925 206.716875,0.998925 C207.352125,0.998925 207.862875,1.123425 208.374375,1.465425 C208.793625,1.743675 209.149875,2.162175 209.381625,2.611425 L208.467375,3.215925 Z" id="Fill-19" fill="#1B459C"></path>
                    <polygon id="Fill-21" fill="#1B459C" points="217.3989 2.25495 213.1824 2.25495 213.1824 5.32395 217.2744 5.32395 217.2744 6.4092 213.1824 6.4092 213.1824 10.42245 217.3989 10.42245 217.3989 11.5077 212.0364 11.5077 212.0364 1.1697 217.3989 1.1697"></polygon>
                    <path d="M227.5686,3.4488 C227.2431,3.12255 226.74735,2.73555 226.22085,2.4873 C225.67785,2.2398 225.04185,2.08455 224.43735,2.08455 C222.05085,2.08455 220.2846,4.00605 220.2846,6.3933 C220.2846,9.19905 222.56235,10.60905 224.4531,10.60905 C225.1506,10.60905 225.8331,10.4073 226.3761,10.1283 C226.9641,9.8343 227.38335,9.44655 227.5686,9.2613 L227.5686,10.6863 C226.42185,11.50755 225.2286,11.6943 224.4531,11.6943 C221.38485,11.6943 219.1056,9.37005 219.1056,6.3783 C219.1056,3.29355 221.4156,0.9993 224.51535,0.9993 C225.1356,0.9993 226.3296,1.07655 227.5686,2.0223 L227.5686,3.4488 Z" id="Fill-23" fill="#1B459C"></path>
                    <path d="M230.967375,7.509 C230.967375,8.3775 230.967375,9.3225 231.788625,10.02 C232.207125,10.377 232.920375,10.60875 233.494125,10.60875 C234.067875,10.60875 234.779625,10.377 235.198875,10.02 C236.020125,9.3225 236.020125,8.3775 236.020125,7.509 L236.020125,1.17 L237.166875,1.17 L237.166875,7.8195 C237.166875,8.68725 237.073875,9.52425 236.516625,10.29975 C235.896375,11.15175 234.811125,11.694 233.494125,11.694 C232.175625,11.694 231.091875,11.15175 230.471625,10.29975 C229.913625,9.52425 229.820625,8.68725 229.820625,7.8195 L229.820625,1.17 L230.967375,1.17 L230.967375,7.509 Z" id="Fill-25" fill="#1B459C"></path>
                    <path d="M241.1382,5.958825 L241.8672,5.958825 C243.29295,5.958825 244.14495,5.277075 244.14495,4.068075 C244.14495,3.494325 243.97545,2.922075 243.32445,2.549325 C242.85945,2.286075 242.3322,2.255325 241.83645,2.255325 L241.1382,2.255325 L241.1382,5.958825 Z M241.6497,1.170075 C242.34795,1.170075 243.3867,1.216575 244.1607,1.743075 C244.7652,2.146575 245.29245,2.937075 245.29245,4.036575 C245.29245,5.618325 244.2537,6.780825 242.68845,6.889575 L245.97495,11.507325 L244.5792,11.507325 L241.4337,6.981825 L241.1382,6.981825 L241.1382,11.507325 L239.9922,11.507325 L239.9922,1.170075 L241.6497,1.170075 Z" id="Fill-27" fill="#1B459C"></path>
                    <mask id="mask-2" fill="white">
                        <use xlink:href="#path-1"></use>
                    </mask>
                    <g id="Clip-30"></g>
                    <polygon id="Fill-29" fill="#1B459C" mask="url(#mask-2)" points="247.91475 11.508 249.06225 11.508 249.06225 1.17 247.91475 1.17"></polygon>
                    <polygon id="Fill-31" fill="#1B459C" mask="url(#mask-2)" points="254.4258 2.25495 254.4258 11.5077 253.2783 11.5077 253.2783 2.25495 250.7673 2.25495 250.7673 1.1697 256.9368 1.1697 256.9368 2.25495"></polygon>
                    <polygon id="Fill-32" fill="#1B459C" mask="url(#mask-2)" points="261.14025 7.059675 257.74575 1.169925 259.0785 1.169925 261.714 5.789175 264.37875 1.169925 265.713 1.169925 262.287 7.059675 262.287 11.507925 261.14025 11.507925"></polygon>
                    <path d="M273.463275,7.757325 C273.680025,7.308075 273.835275,6.921075 273.835275,6.470325 C273.835275,6.052575 273.680025,5.556075 273.106275,5.556075 C271.680525,5.556075 270.022275,8.826825 270.022275,10.299825 C270.022275,10.655325 270.176775,10.842075 270.440775,10.842075 C271.215525,10.842075 273.183525,8.331075 273.463275,7.757325 L273.463275,7.757325 Z M275.416275,5.060325 C275.478553,5.060325 275.494275,5.137575 275.462775,5.199825 C275.167275,5.835075 274.377525,7.974075 274.300275,8.222325 C274.206525,8.485575 273.556275,10.407075 273.556275,10.547325 C273.556275,10.686825 273.633525,10.733325 273.726525,10.733325 C273.912525,10.733325 274.703025,9.927075 274.811775,9.788325 C274.858275,9.741825 274.904775,9.710325 274.935525,9.756825 L275.074275,9.911325 C275.120775,9.957825 275.136525,9.989325 275.105775,10.035825 C274.935525,10.346325 273.587025,11.663325 272.703525,11.663325 C272.518275,11.663325 272.378025,11.601075 272.378025,11.399325 C272.378025,11.166825 272.533275,10.686825 273.121275,9.043575 L273.044775,9.012075 C272.393775,10.004325 270.827775,11.663325 269.727525,11.663325 C269.371275,11.663325 268.890525,11.368575 268.890525,10.671075 C268.890525,8.409075 271.432275,5.060325 273.323025,5.060325 C273.974775,5.060325 274.268775,5.339325 274.424025,5.586825 L274.718025,5.169075 C274.764525,5.106825 274.811775,5.060325 274.873275,5.060325 L275.416275,5.060325 Z" id="Fill-33" fill="#1B459C" mask="url(#mask-2)"></path>
                    <path d="M276.53505,11.507625 C276.36405,11.507625 276.3333,11.476875 276.36405,11.368875 L277.46505,8.500875 C277.8363,7.540125 278.27055,6.424875 278.27055,6.160875 C278.27055,6.005625 278.2083,5.897625 278.0388,5.897625 C277.7433,5.897625 277.00005,6.640875 276.73605,6.934875 C276.68955,6.982125 276.6438,6.982125 276.58155,6.920625 L276.44205,6.781125 C276.3798,6.718875 276.36405,6.688125 276.41055,6.625875 C276.6438,6.346875 277.7898,5.059875 278.90655,5.059875 C279.2628,5.059875 279.4023,5.323875 279.4023,5.524875 C279.4023,6.005625 278.73555,7.477875 278.61255,7.834875 L278.6733,7.866375 C279.13905,7.121625 280.82805,5.059875 282.2073,5.059875 C282.6723,5.059875 282.9828,5.293125 282.9828,5.695875 C282.9828,6.378375 282.6258,7.183875 282.11505,8.438625 C281.6958,9.461625 281.3238,10.330125 281.3238,10.577625 C281.3238,10.671375 281.38605,10.780125 281.51055,10.780125 C281.7423,10.780125 282.4248,10.206375 282.6258,9.988875 C282.68805,9.942375 282.7503,9.958125 282.7968,10.019625 L282.90555,10.144125 C282.96705,10.206375 282.9828,10.237125 282.92055,10.315125 C282.73455,10.562625 281.47905,11.663625 280.44105,11.663625 C280.23855,11.663625 280.06905,11.585625 280.06905,11.353125 C280.06905,11.058375 280.6263,9.834375 281.1078,8.500875 C281.3238,7.897125 281.8818,6.610125 281.8818,6.269625 C281.8818,6.052125 281.77305,5.913375 281.4948,5.913375 C280.8903,5.913375 279.3558,7.339125 278.6733,8.438625 C278.3943,8.889375 278.1468,9.292125 277.7433,10.377375 L277.3563,11.414625 C277.32555,11.476875 277.29405,11.507625 277.13955,11.507625 L276.53505,11.507625 Z" id="Fill-34" fill="#1B459C" mask="url(#mask-2)"></path>
                    <path d="M288.084975,8.74935 C288.519225,8.15985 289.092975,7.1841 289.092975,6.57885 C289.092975,5.85135 288.766725,5.55585 288.270975,5.55585 C286.813725,5.55585 285.171225,8.95035 285.171225,10.37685 C285.171225,10.70235 285.402975,10.87335 285.620475,10.87335 C286.271475,10.87335 287.464725,9.60135 288.084975,8.74935 L288.084975,8.74935 Z M289.913475,1.5726 C289.789725,1.5726 289.773975,1.51035 289.789725,1.46535 L289.882725,1.1391 C289.897725,1.07685 289.929225,1.0461 290.069475,1.0461 L291.975225,1.0461 C292.191975,1.0461 292.222725,1.20135 292.161225,1.3251 C291.928725,1.8681 289.215975,9.12135 288.952725,10.0506 C288.813225,10.53135 288.797475,10.7646 289.014975,10.7646 C289.278225,10.7646 290.022225,10.0506 290.100225,9.9576 C290.162475,9.9111 290.223225,9.9111 290.270475,9.97335 L290.425725,10.1286 C290.472225,10.15935 290.472225,10.2216 290.425725,10.28385 C290.316975,10.4226 288.984225,11.6631 288.162975,11.6631 C287.913975,11.6631 287.743725,11.5851 287.743725,11.30685 C287.743725,10.99635 288.084975,9.94185 288.426225,9.0591 L288.301725,9.02835 C287.542725,10.23735 286.085475,11.6631 285.031725,11.6631 C284.504475,11.6631 284.039475,11.30685 284.039475,10.6401 C284.039475,9.41535 284.907225,7.5711 286.178475,6.3156 C286.674975,5.8356 287.573475,5.0601 288.612225,5.0601 C289.030725,5.0601 289.324725,5.26185 289.588725,5.5716 L290.781225,2.1771 C290.889975,1.8831 290.812725,1.5726 290.394225,1.5726 L289.913475,1.5726 Z" id="Fill-35" fill="#1B459C" mask="url(#mask-2)"></path>
                    <polygon id="Fill-36" fill="#1B459C" mask="url(#mask-2)" points="131.350725 19.527675 127.134975 19.527675 127.134975 22.596675 131.226975 22.596675 131.226975 23.681925 127.134975 23.681925 127.134975 27.695925 131.350725 27.695925 131.350725 28.781175 125.988225 28.781175 125.988225 18.443175 131.350725 18.443175"></polygon>
                    <polygon id="Fill-37" fill="#1B459C" mask="url(#mask-2)" points="132.717075 28.781475 134.437575 17.869725 138.405825 26.595225 142.451325 17.853975 144.062325 28.781475 142.885575 28.781475 141.909075 21.588975 138.390075 29.214975 134.918325 21.588975 133.895325 28.781475"></polygon>
                    <polygon id="Fill-38" fill="#1B459C" mask="url(#mask-2)" points="151.445775 19.527675 147.229275 19.527675 147.229275 22.596675 151.321275 22.596675 151.321275 23.681925 147.229275 23.681925 147.229275 27.695925 151.445775 27.695925 151.445775 28.781175 146.083275 28.781175 146.083275 18.443175 151.445775 18.443175"></polygon>
                    <path d="M154.3158,23.2323 L155.0448,23.2323 C156.47055,23.2323 157.32255,22.5498 157.32255,21.34155 C157.32255,20.7678 157.15305,20.19405 156.5013,19.8228 C156.0363,19.5588 155.5098,19.52805 155.0133,19.52805 L154.3158,19.52805 L154.3158,23.2323 Z M154.8273,18.44355 C155.5248,18.44355 156.56355,18.49005 157.3383,19.0158 C157.9428,19.42005 158.47005,20.2098 158.47005,21.31005 C158.47005,22.8918 157.4313,24.05355 155.8653,24.1623 L159.1518,28.78155 L157.75605,28.78155 L154.61055,24.2553 L154.3158,24.2553 L154.3158,28.78155 L153.16905,28.78155 L153.16905,18.44355 L154.8273,18.44355 Z" id="Fill-39" fill="#1B459C" mask="url(#mask-2)"></path>
                    <path d="M165.912225,23.588625 L170.220975,23.588625 L170.220975,23.836875 C170.220975,24.983625 169.880475,26.224125 169.228725,27.106875 C168.918975,27.525375 167.756475,28.966875 165.384975,28.966875 C162.315975,28.966875 160.022475,26.626875 160.022475,23.620125 C160.022475,20.612625 162.331725,18.272625 165.416475,18.272625 C166.408725,18.272625 167.569725,18.520125 168.577725,19.295625 C169.043475,19.651875 169.476975,20.116875 169.771725,20.519625 L168.918975,21.295125 C168.624225,20.876625 168.283725,20.503875 167.943225,20.225625 C167.446725,19.822875 166.671225,19.357875 165.431475,19.357875 C162.936225,19.357875 161.199975,21.232875 161.199975,23.635125 C161.199975,26.455875 163.447725,27.882375 165.400725,27.882375 C166.779975,27.882375 167.973975,27.184875 168.561975,26.146125 C168.748725,25.821375 168.950475,25.324875 168.981225,24.673875 L165.912225,24.673875 L165.912225,23.588625 Z" id="Fill-40" fill="#1B459C" mask="url(#mask-2)"></path>
                    <polygon id="Fill-41" fill="#1B459C" mask="url(#mask-2)" points="171.945 28.78125 173.0925 28.78125 173.0925 18.44325 171.945 18.44325"></polygon>
                    <polygon id="Fill-42" fill="#1B459C" mask="url(#mask-2)" points="175.3872 28.781475 175.3872 18.008475 183.44745 26.455725 183.44745 18.443475 184.5942 18.443475 184.5942 29.246475 176.53395 20.799225 176.53395 28.781475"></polygon>
                    <path d="M192.223725,23.588625 L196.532475,23.588625 L196.532475,23.836875 C196.532475,24.983625 196.191975,26.224125 195.540225,27.106875 C195.230475,27.525375 194.067975,28.966875 191.696475,28.966875 C188.628225,28.966875 186.333975,26.626875 186.333975,23.620125 C186.333975,20.612625 188.643225,18.272625 191.727975,18.272625 C192.720225,18.272625 193.881975,18.520125 194.889225,19.295625 C195.354975,19.651875 195.788475,20.116875 196.083225,20.519625 L195.230475,21.295125 C194.935725,20.876625 194.595225,20.503875 194.254725,20.225625 C193.758225,19.822875 192.982725,19.357875 191.743725,19.357875 C189.247725,19.357875 187.511475,21.232875 187.511475,23.635125 C187.511475,26.455875 189.759225,27.882375 191.712225,27.882375 C193.091475,27.882375 194.285475,27.184875 194.873475,26.146125 C195.060225,25.821375 195.261975,25.324875 195.292725,24.673875 L192.223725,24.673875 L192.223725,23.588625 Z" id="Fill-43" fill="#1B459C" mask="url(#mask-2)"></path>
                    <polygon id="Fill-44" fill="#1B459C" mask="url(#mask-2)" points="204.055275 19.527675 204.055275 28.781175 202.907775 28.781175 202.907775 19.527675 200.397525 19.527675 200.397525 18.443175 206.566275 18.443175 206.566275 19.527675"></polygon>
                    <polygon id="Fill-45" fill="#1B459C" mask="url(#mask-2)" points="213.109125 19.527675 208.893375 19.527675 208.893375 22.596675 212.985375 22.596675 212.985375 23.681925 208.893375 23.681925 208.893375 27.695925 213.109125 27.695925 213.109125 28.781175 207.746625 28.781175 207.746625 18.443175 213.109125 18.443175"></polygon>
                    <path d="M222.737175,20.721525 C222.410925,20.396025 221.915175,20.008275 221.387925,19.760775 C220.845675,19.511775 220.210425,19.358025 219.605925,19.358025 C217.219425,19.358025 215.451675,21.279525 215.451675,23.666025 C215.451675,26.471775 217.730925,27.882525 219.621675,27.882525 C220.319175,27.882525 221.000925,27.680775 221.543175,27.401775 C222.132675,27.107025 222.550425,26.720025 222.737175,26.533275 L222.737175,27.959025 C221.590425,28.781775 220.396425,28.967025 219.621675,28.967025 C216.552675,28.967025 214.274175,26.642025 214.274175,23.651025 C214.274175,20.566275 216.583425,18.272775 219.683925,18.272775 C220.304175,18.272775 221.496675,18.350025 222.737175,19.295775 L222.737175,20.721525 Z" id="Fill-46" fill="#1B459C" mask="url(#mask-2)"></path>
                    <polygon id="Fill-47" fill="#1B459C" mask="url(#mask-2)" points="225.60825 22.643025 230.9085 22.643025 230.9085 18.443025 232.056 18.443025 232.056 28.781775 230.9085 28.781775 230.9085 23.728275 225.60825 23.728275 225.60825 28.781775 224.46075 28.781775 224.46075 18.443025 225.60825 18.443025"></polygon>
                    <polygon id="Fill-48" fill="#1B459C" mask="url(#mask-2)" points="234.35415 28.781475 234.35415 18.008475 242.4129 26.455725 242.4129 18.443475 243.5604 18.443475 243.5604 29.246475 235.50015 20.799225 235.50015 28.781475"></polygon>
                    <path d="M246.477525,23.61975 C246.477525,25.99125 248.354025,27.88275 250.678275,27.88275 C253.003275,27.88275 254.879025,25.99125 254.879025,23.61975 C254.879025,21.24825 253.003275,19.3575 250.678275,19.3575 C248.354025,19.3575 246.477525,21.24825 246.477525,23.61975 M245.300025,23.61975 C245.300025,20.535 247.702275,18.273 250.678275,18.273 C253.654275,18.273 256.056525,20.535 256.056525,23.61975 C256.056525,26.68875 253.670025,28.9665 250.678275,28.9665 C247.687275,28.9665 245.300025,26.68875 245.300025,23.61975" id="Fill-49" fill="#1B459C" mask="url(#mask-2)"></path>
                    <polygon id="Fill-50" fill="#1B459C" mask="url(#mask-2)" points="258.943725 18.443325 258.943725 27.696075 261.795225 27.696075 261.795225 28.781325 257.796975 28.781325 257.796975 18.443325"></polygon>
                    <path d="M263.067975,23.61975 C263.067975,25.99125 264.942975,27.88275 267.268725,27.88275 C269.592975,27.88275 271.468725,25.99125 271.468725,23.61975 C271.468725,21.24825 269.592975,19.3575 267.268725,19.3575 C264.942975,19.3575 263.067975,21.24825 263.067975,23.61975 M261.889725,23.61975 C261.889725,20.535 264.292725,18.273 267.268725,18.273 C270.244725,18.273 272.646975,20.535 272.646975,23.61975 C272.646975,26.68875 270.259725,28.9665 267.268725,28.9665 C264.276975,28.9665 261.889725,26.68875 261.889725,23.61975" id="Fill-51" fill="#1B459C" mask="url(#mask-2)"></path>
                    <path d="M279.71925,23.588625 L284.028,23.588625 L284.028,23.836875 C284.028,24.983625 283.6875,26.224125 283.03575,27.106875 C282.72525,27.525375 281.5635,28.966875 279.192,28.966875 C276.12375,28.966875 273.82875,26.626875 273.82875,23.620125 C273.82875,20.612625 276.13875,18.272625 279.2235,18.272625 C280.21575,18.272625 281.37675,18.520125 282.38475,19.295625 C282.84975,19.651875 283.28325,20.116875 283.57875,20.519625 L282.72525,21.295125 C282.43125,20.876625 282.09075,20.503875 281.74875,20.225625 C281.253,19.822875 280.47825,19.357875 279.2385,19.357875 C276.74325,19.357875 275.007,21.232875 275.007,23.635125 C275.007,26.455875 277.25475,27.882375 279.20775,27.882375 C280.587,27.882375 281.78025,27.184875 282.369,26.146125 C282.55575,25.821375 282.75675,25.324875 282.7875,24.673875 L279.71925,24.673875 L279.71925,23.588625 Z" id="Fill-52" fill="#1B459C" mask="url(#mask-2)"></path>
                    <polygon id="Fill-53" fill="#1B459C" mask="url(#mask-2)" points="287.953875 24.333075 284.559375 18.443325 285.892125 18.443325 288.527625 23.061825 291.192375 18.443325 292.526625 18.443325 289.100625 24.333075 289.100625 28.781325 287.953875 28.781325"></polygon>
                    <path d="M57.0798,28.16475 C54.5808,29.43525 52.5483,29.6895 50.85405,29.6895 C45.64455,29.6895 42.1293,27.9105 39.7578,25.58175 C37.2168,23.12475 35.35305,19.398 35.35305,14.8665 C35.35305,10.41975 37.2168,6.693 39.7578,4.236 C42.2568,1.82175 45.8988,0.17025 50.30355,0.17025 C52.1673,0.17025 54.3273,0.55125 57.0798,1.73775 L57.0798,9.276 C55.6398,7.75125 53.4798,6.26925 50.47305,6.26925 C48.1008,6.26925 46.19505,7.03125 44.71305,8.47125 C43.1463,9.996 42.0453,12.28275 42.0453,14.99325 C42.0453,17.91525 43.23105,19.99125 44.50155,21.219 C45.09405,21.81225 47.1273,23.5905 50.5998,23.5905 C52.29405,23.5905 54.5808,23.12475 57.0798,20.6685 L57.0798,28.16475 Z" id="Fill-54" fill="#1B459C" mask="url(#mask-2)"></path>
                    <path d="M74.7378,7.70895 C72.62055,5.8032 70.79955,5.67645 69.99405,5.67645 C69.1053,5.67645 68.00355,5.8032 67.24155,6.64995 C66.8178,7.0737 66.52155,7.70895 66.52155,8.42895 C66.52155,9.1062 66.7338,9.6147 67.1568,9.9957 C67.83405,10.63095 68.8083,10.8852 70.71405,11.6052 L72.83205,12.40995 C74.06055,12.8757 75.58455,13.51095 76.6863,14.56995 C78.3378,16.1367 78.76155,18.16995 78.76155,19.82145 C78.76155,22.74345 77.74455,25.2852 76.26255,26.8092 C73.76355,29.4357 70.12155,29.68995 68.2578,29.68995 C66.2253,29.68995 64.4463,29.39295 62.6673,28.50345 C61.2273,27.78345 59.5758,26.47095 58.51755,25.41195 L61.9053,20.7537 C62.6253,21.4737 63.76905,22.4472 64.53105,22.91295 C65.63205,23.59095 66.7758,23.9292 68.0883,23.9292 C68.9358,23.9292 70.12155,23.76045 71.05305,22.9557 C71.60355,22.48995 72.0693,21.7272 72.0693,20.6682 C72.0693,19.7367 71.6883,19.1442 71.0958,18.6357 C70.33305,18.00045 68.5968,17.3652 67.79205,17.0682 L65.46255,16.2642 C64.15005,15.79845 62.6253,15.2052 61.5243,14.01945 C60.04155,12.4527 59.83005,10.46145 59.83005,9.1062 C59.83005,6.60795 60.5928,4.48995 62.2863,2.7537 C64.2768,0.7212 66.6483,0.1707 69.27405,0.1707 C71.22255,0.1707 74.3568,0.50895 77.6598,2.9652 L74.7378,7.70895 Z" id="Fill-55" fill="#1B459C" mask="url(#mask-2)"></path>
                    <polygon id="Fill-56" fill="#1B459C" mask="url(#mask-2)" points="97.329 6.311475 87.88425 6.311475 87.88425 11.774475 96.86325 11.774475 96.86325 17.280225 87.88425 17.280225 87.88425 23.548725 97.329 23.548725 97.329 29.054475 81.36225 29.054475 81.36225 0.805725 97.329 0.805725"></polygon>
                    <polygon id="Fill-57" fill="#1B459C" mask="url(#mask-2)" points="111.968625 6.311475 111.968625 29.054475 105.446625 29.054475 105.446625 6.311475 99.305625 6.311475 99.305625 0.805725 118.109625 0.805725 118.109625 6.311475"></polygon>
                    <path d="M24.316425,24.31695 C22.285425,26.34795 19.764675,27.59745 17.130675,28.0662 C19.609425,25.47345 21.164925,22.2222 21.630675,18.7137 C22.039425,18.3417 22.440675,17.95845 22.834425,17.56545 C24.755175,15.64395 26.424675,13.53945 27.831675,11.26995 C29.016675,15.78045 27.845175,20.7882 24.316425,24.31695 M7.857675,26.41245 C8.527425,26.2197 9.191925,26.00595 9.851925,25.7712 C10.304925,26.48595 10.796175,27.1767 11.320425,27.8442 C10.118925,27.5337 8.951925,27.05745 7.857675,26.41245 M5.153175,24.31695 C0.518175,19.68195 -0.050325,12.49845 3.445425,7.23795 C3.655425,7.47045 3.872175,7.69695 4.094175,7.9197 C4.678425,8.50395 5.294925,9.04395 5.937675,9.5412 C5.866425,10.32645 5.828925,11.1177 5.828925,11.9142 C5.828925,15.2697 6.465675,18.54045 7.721175,21.63645 C8.154675,22.70595 8.656425,23.73795 9.223425,24.7302 C8.341425,25.0362 7.450425,25.30395 6.550425,25.5342 C6.063675,25.1652 5.596425,24.7602 5.153175,24.31695 M5.153175,5.1537 C5.806425,4.4997 6.511425,3.9267 7.253925,3.4347 C6.722175,4.96845 6.335925,6.54195 6.101925,8.14395 C5.700675,7.8072 5.311425,7.45245 4.936425,7.0767 C4.669425,6.81045 4.413675,6.53595 4.164675,6.2547 C4.471425,5.87445 4.799925,5.5062 5.153175,5.1537 M10.509675,1.86195 C12.552675,2.63445 14.426925,3.8382 16.016925,5.4282 C17.912925,7.32495 19.260675,9.6237 19.981425,12.1317 C19.178175,12.2412 18.364425,12.2982 17.539425,12.2982 C13.775925,12.2982 10.191675,11.1387 7.191675,8.9892 C7.454925,6.7497 8.019675,4.5777 8.865675,2.5212 C9.401925,2.2647 9.950925,2.04495 10.509675,1.86195 M21.780675,16.46595 C21.780675,15.31845 21.665175,14.18895 21.441675,13.08945 C23.173425,12.72945 24.836925,12.1317 26.393925,11.3112 C25.127925,13.2492 23.657175,15.05745 21.991425,16.7232 C21.920175,16.79595 21.846675,16.8672 21.772425,16.93995 C21.777675,16.78245 21.780675,16.6242 21.780675,16.46595 M10.859925,24.11595 C10.691925,24.18345 10.523925,24.24945 10.356675,24.3147 C8.180925,20.5902 7.019925,16.3422 7.019925,11.9142 C7.019925,11.39145 7.037925,10.87095 7.069425,10.3527 C10.150425,12.3927 13.760175,13.48845 17.539425,13.48845 C18.461175,13.48845 19.371675,13.4232 20.267175,13.29495 C20.479425,14.3277 20.589675,15.3882 20.589675,16.46595 C20.589675,17.0247 20.558925,17.5797 20.501175,18.1272 C17.638425,20.6682 14.403675,22.67895 10.859925,24.11595 M15.192675,28.27095 C14.513175,28.2942 13.832175,28.26645 13.157175,28.18845 C12.362925,27.28695 11.639925,26.3367 10.993425,25.34445 C11.097675,25.3032 11.202675,25.26195 11.306925,25.21995 C14.534175,23.9112 17.514675,22.14345 20.200425,19.9482 C19.557675,22.78695 18.125925,25.3932 16.016925,27.50295 C15.749925,27.7692 15.474675,28.0257 15.192675,28.27095 M24.316425,5.1537 C25.587675,6.42495 26.552175,7.88745 27.212175,9.45045 C25.365675,10.6482 23.320425,11.48745 21.163425,11.9307 C20.396925,9.18045 18.932925,6.66045 16.859925,4.5867 C15.539175,3.26595 14.037675,2.19345 12.410175,1.3902 C16.607925,0.66495 21.082425,1.91895 24.316425,5.1537 M10.540425,0.6042 C10.222425,0.6987 9.907425,0.8037 9.593925,0.9207 C9.284925,1.03545 8.979675,1.1607 8.676675,1.2957 C8.430675,1.4067 8.189175,1.52295 7.949175,1.64745 C6.638925,2.32545 5.408925,3.21345 4.310925,4.3107 C3.986175,4.63545 3.680175,4.9722 3.393675,5.3187 C3.128925,5.6367 2.878425,5.9622 2.645925,6.2967 C-1.369575,12.04245 -0.814575,20.0337 4.310925,25.1592 C4.560675,25.40895 4.817175,25.64745 5.080425,25.87545 C5.472675,26.21595 5.878425,26.53245 6.295425,26.82345 C8.199675,28.1547 10.349925,28.9827 12.560925,29.3097 C12.932925,29.36445 13.304175,29.40645 13.676925,29.43195 C13.906425,29.44845 14.135175,29.4597 14.364675,29.46495 C14.794425,29.4762 15.224925,29.4672 15.653925,29.4402 C19.116675,29.2257 22.517925,27.79995 25.158675,25.1592 C29.277675,21.0402 30.443925,15.0702 28.660425,9.90195 C28.656675,9.89295 28.653675,9.8847 28.651425,9.87645 C28.520175,9.4977 28.371675,9.12345 28.208925,8.7552 C28.163925,8.6517 28.115175,8.54895 28.067175,8.4462 C27.363675,6.9492 26.393925,5.5467 25.158675,4.3107 C21.208425,0.3612 15.555675,-0.87405 10.540425,0.6042" id="Fill-58" fill="#1B459C" mask="url(#mask-2)"></path>
                    <path d="M8.86485,15.45945 C9.8361,16.4307 9.8361,18.0057 8.86485,18.97695 C7.8936,19.9482 6.3186,19.9482 5.34735,18.97695 C4.3761,18.0057 4.3761,16.4307 5.34735,15.45945 C6.3186,14.4882 7.8936,14.4882 8.86485,15.45945" id="Fill-59" fill="#1B459C" mask="url(#mask-2)"></path>
                    <path d="M29.8191,8.076225 C30.79035,9.047475 30.79035,10.622475 29.8191,11.593725 C28.84785,12.564975 27.27285,12.564975 26.3016,11.593725 C25.3296,10.622475 25.3296,9.047475 26.3016,8.076225 C27.27285,7.104975 28.84785,7.104975 29.8191,8.076225" id="Fill-60" fill="#1B459C" mask="url(#mask-2)"></path>
                    <path d="M18.0366,27.201225 C19.00785,28.172475 19.00785,29.747475 18.0366,30.718725 C17.06535,31.689975 15.49035,31.689975 14.5191,30.718725 C13.5471,29.747475 13.5471,28.172475 14.5191,27.201225 C15.49035,26.229975 17.06535,26.229975 18.0366,27.201225" id="Fill-61" fill="#1B459C" mask="url(#mask-2)"></path>
                </g>
            </g>
        </g>
    </g>
</svg>